<svg width="23" height="19" viewBox="0 0 23 19" fill="none" xmlns="http://www.w3.org/2000/svg">
<path d="M13.589 13.5523C12.3798 14.7068 12.0775 17.1868 12.0775 18.2825C12.0775 17.128 11.0106 14.648 10.4772 13.5523L8.78787 12.5902C1.0349 11.4357 -0.0735122 4.25212 0.341402 0.804665C10.0148 1.63847 12.1631 9.08926 11.6889 11.7083C10.8887 10.8263 2.83089 4.73317 5.32037 6.7375C7.31196 8.34097 9.9437 10.7195 11.0106 11.7083L12.0775 13.5523L12.5221 12.5902C14.3003 8.90219 19.546 7.37889 17.0565 8.02028C15.0649 8.53339 12.7592 11.1203 12.0775 11.7083C13.5712 6.38474 19.546 4.41248 22.1244 4.73317C21.9821 11.9809 16.3749 13.6324 13.589 13.5523Z" fill="white"/>
</svg>
